<svg xmlns="http://www.w3.org/2000/svg" height="24" viewBox="0 -960 960 960" width="24"><path d="m479.761-78.26-77.109-70.631Q293.13-249.174 223.511-319.674q-69.62-70.5-109.62-124.978-40-54.478-54.739-100.457-14.739-45.978-14.739-95.695 0-106.903 73.013-179.604Q190.439-893.109 298-893.109q48.462 0 96.111 19.022 47.65 19.022 85.65 53.304 38-34.282 85.649-53.304 47.65-19.022 96.112-19.022 107.765 0 180.915 72.701 73.15 72.701 73.15 179.604 0 49.478-14.739 95.456t-54.739 100.337q-40 54.359-109.62 124.978-69.619 70.62-179.619 171.142l-77.109 70.63Zm0-153.327q97.282-88.522 159.685-150.304 62.402-61.783 98.924-107.685 36.521-45.902 50.282-80.959 13.761-35.057 13.761-70.264 0-59.81-39.784-99.473t-100.992-39.663q-44.398 0-84.8 27-40.402 27-46.837 60.196H429.761q-6.322-33.196-46.9-60.196-40.578-27-84.796-27-61.217 0-100.728 39.663-39.511 39.663-39.511 99.468 0 35.463 13.866 70.661 13.866 35.199 50.283 81.193 36.416 45.993 98.699 107.656 62.283 61.664 159.087 149.707Zm.478-274.174Z"/></svg>