<svg xmlns="http://www.w3.org/2000/svg" height="24" viewBox="0 -960 960 960" width="24"><path d="m479.761-78.26-77.109-70.631Q293.13-249.174 223.511-319.674q-69.62-70.5-109.62-124.978-40-54.478-54.739-100.457-14.739-45.978-14.739-95.695 0-106.913 72.957-179.609 72.956-72.696 180.63-72.696 48.478 0 96.12 19.022 47.641 19.022 85.641 53.304 38-34.282 85.641-53.304 47.641-19.022 96.12-19.022 107.674 0 180.869 72.696 73.196 72.696 73.196 179.609 0 49.478-14.739 95.456t-54.739 100.337q-40 54.359-109.62 124.978-69.619 70.62-179.619 171.142l-77.109 70.63Z"/></svg>