<svg xmlns="http://www.w3.org/2000/svg" height="24" viewBox="0 -960 960 960" width="24"><path d="M136.847-68.078q-28.63 0-48.45-19.916-19.819-19.916-19.819-48.353v-687.306q0-28.437 19.82-48.353 19.819-19.916 48.449-19.916h687.306q28.437 0 48.353 19.916t19.916 48.353v687.306q0 28.437-19.916 48.353t-48.353 19.916H136.847Zm150.23-38.192 39.73-40.153-73.885-73.886h488.077v-214.037h-55.96v158.077H252.922l73.885-74.077-39.73-40.153-142.114 142.114L287.077-106.27Zm180.385-262.307h45.268v-223.346h-97.191v45.269h51.923v178.077ZM220.001-527.77h55.96v-158.077h432.117l-74.077 74.078 39.73 40.153 142.114-142.115-142.114-142.114-39.73 40.153 74.077 73.885H220.001v214.037Z"/></svg>