<svg xmlns="http://www.w3.org/2000/svg" height="24" viewBox="0 -960 960 960" width="24"><path d="M120-64.04q-23.084 0-39.522-16.438T64.04-120v-720q0-23.084 16.438-39.522T120-895.96h720q23.084 0 39.522 16.438T895.96-840v720q0 23.084-16.438 39.522T840-64.04H120Zm452.424-108.384h215.96v-215.96h-55.96v119.078L590.115-411.615l-39.845 39.846 143.193 143.385H572.424v55.96ZM216-176.27l516.424-516.424v120.27h55.96v-215.96h-215.96v55.96h120.27L176.27-216 216-176.27Zm154.962-374 39.345-39.345L216-783.73l-39.345 39.345L370.962-550.27Z"/></svg>